<?xml version="1.0" encoding="UTF-8"?>
<svg width="396px" height="186px" viewBox="0 0 396 186" version="1.1" xmlns="http://www.w3.org/2000/svg" xmlns:xlink="http://www.w3.org/1999/xlink">
    <!-- Generator: Sketch 49 (51002) - http://www.bohemiancoding.com/sketch -->
    <title>Badge</title>
    <desc>Created with Sketch.</desc>
    <defs>
        <path d="M0,0 L306.903271,0 C333.412939,-4.86974701e-15 354.903271,21.490332 354.903271,48 L354.903271,48 C354.903271,74.509668 333.412939,96 306.903271,96 L0,96 L0,0 Z" id="path-1"></path>
        <filter x="-10.8%" y="-38.0%" width="121.7%" height="180.2%" filterUnits="objectBoundingBox" id="filter-2">
            <feOffset dx="0" dy="2" in="SourceAlpha" result="shadowOffsetOuter1"></feOffset>
            <feGaussianBlur stdDeviation="12.5" in="shadowOffsetOuter1" result="shadowBlurOuter1"></feGaussianBlur>
            <feColorMatrix values="0 0 0 0 0   0 0 0 0 0   0 0 0 0 0  0 0 0 0.336447011 0" type="matrix" in="shadowBlurOuter1"></feColorMatrix>
        </filter>
    </defs>
    <g id="Page-1" stroke="none" stroke-width="1" fill="none" fill-rule="evenodd">
        <g id="Artboard-Copy-8" transform="translate(0.000000, -754.000000)">
            <g id="Badge" transform="translate(17.000000, 777.000000)">
                <g id="Group-5">
                    <polygon id="Rectangle-2" fill="#D0021B" points="0 6.67763094e-15 15 0 15 120.293505 0 95.9067383"></polygon>
                    <path d="M21,96 L302,96 L302,155.553522 C270.533203,160.507424 223.764323,162.984375 161.693359,162.984375 C99.6223958,162.984375 52.7246094,160.507424 21,155.553522 L21,96 Z" id="Rectangle" fill="#FF0633" opacity="0.800000012"></path>
                    <g id="Rectangle-2-Copy" opacity="0.800000012">
                        <use fill="black" fill-opacity="1" filter="url(#filter-2)" xlink:href="#path-1"></use>
                        <use fill="#FF0633" fill-rule="evenodd" xlink:href="#path-1"></use>
                    </g>
                </g>
            </g>
        </g>
    </g>
</svg>