<?xml version="1.0" encoding="UTF-8"?>
<svg width="25px" height="22px" viewBox="0 0 25 22" version="1.1" xmlns="http://www.w3.org/2000/svg" xmlns:xlink="http://www.w3.org/1999/xlink">
    <!-- Generator: Sketch 48.2 (47327) - http://www.bohemiancoding.com/sketch -->
    <title>island</title>
    <desc>Created with Sketch.</desc>
    <defs></defs>
    <g id="01.-Homepage" stroke="none" stroke-width="1" fill="none" fill-rule="evenodd" transform="translate(-506.000000, -44.000000)">
        <g id="kaleb-nimz-904" transform="translate(-13.000000, 0.000000)" fill="#F91B37" fill-rule="nonzero">
            <g id="island" transform="translate(519.000000, 44.000000)">
                <path d="M18.9893617,4.46808511 C20.2212124,4.46808511 21.2234043,3.46588345 21.2234043,2.23406448 C21.2234043,1.00220166 20.2212124,0 18.9893617,0 C17.757511,0 16.7553191,1.00220166 16.7553191,2.23406448 C16.755363,3.46588345 17.757511,4.46808511 18.9893617,4.46808511 Z" id="Shape"></path>
                <path d="M21.8368575,19.3965854 C21.6795345,18.1757252 20.633536,17.0732118 18.8502907,16.2783584 C17.7552264,15.7902235 16.4414816,15.4383731 15.0120241,15.241634 C15.1786665,13.821106 15.6562774,12.5605006 16.4368974,11.4902018 C16.7617191,11.0448454 17.0807981,10.717679 17.3183693,10.5020085 C17.774621,11.0037927 18.4546913,11.9322636 18.1318342,12.7329219 C17.9921931,13.0792812 18.1494153,13.4775708 18.4830528,13.6225888 C18.5657191,13.6585164 18.6513576,13.6755128 18.7356863,13.6755128 C18.9917454,13.6755128 19.2349587,13.5185712 19.3400422,13.2580304 C19.7614843,12.2128339 19.4091575,11.2011072 18.9327052,10.4345461 C19.3246776,10.6578519 19.7529708,11.0389359 20.14988,11.6820251 C20.2749122,11.8846215 20.486137,11.9951762 20.7018956,11.9951762 C20.8228474,11.9951762 20.9451593,11.9604513 21.0545751,11.8876547 C21.3590955,11.6851106 21.4478069,11.264595 21.2527022,10.9484631 C20.1104359,9.09764015 18.6922122,8.78239727 17.8837345,8.77502347 C17.8197071,8.55558765 17.725404,8.30979443 17.5860148,8.05814401 C17.1946469,7.35167153 16.3688904,6.46618837 14.6577326,6.25956518 C14.2986051,6.21636832 13.9733299,6.4833939 13.9315686,6.85637204 C13.8898072,7.22929788 14.1471761,7.56681904 14.5064547,7.61022508 C15.4543217,7.72464967 15.9941464,8.10395568 16.3017397,8.50329122 C15.5228828,8.36360746 14.5238847,8.42667695 13.5787884,9.19752633 C13.2943679,9.4295133 13.2449494,9.85687973 13.4684155,10.1520931 C13.5976289,10.3228409 13.789711,10.4120063 13.9838081,10.411954 C14.1253635,10.411954 14.2680271,10.3645212 14.3879714,10.2666746 C14.9616485,9.79877839 15.583938,9.75756881 16.0800368,9.84317806 C15.2118136,10.7505211 14.0121695,12.4493707 13.7077499,15.1078597 C13.2415239,15.0757497 12.7669859,15.0591717 12.2871585,15.0591717 C11.9655104,15.0591717 11.6462803,15.0667024 11.3302743,15.0812408 C11.507546,11.6733439 10.2691631,9.65046572 9.37333409,8.64752478 C10.0528503,8.45920533 11.0243434,8.40173155 11.9114574,9.12535726 C12.0314017,9.22320388 12.1740149,9.27063674 12.3156207,9.27063674 C12.5097178,9.27063674 12.7018503,9.18147133 12.8310133,9.01077578 C13.0544793,8.71551014 13.0050609,8.28814371 12.7206907,8.05615674 C11.7761486,7.28572573 10.6235049,7.00834547 9.38738888,7.25419098 C9.30059175,7.27144881 9.2163134,7.29079849 9.13470496,7.31166476 C9.13923876,7.30329733 9.14357106,7.2949299 9.14820562,7.28656247 C9.60546477,6.46116792 10.4488024,5.96884932 11.6546931,5.82325606 C12.0139717,5.77985002 12.2713405,5.44238116 12.2295792,5.06945531 C12.1878178,4.69647717 11.8628953,4.42955619 11.5034152,4.47264845 C9.45977859,4.71933071 8.47720287,5.77043666 8.01279038,6.60869614 C7.82282406,6.95165613 7.70338356,7.2847321 7.62822319,7.57115965 C6.69461254,7.55097323 4.92239958,7.86271225 3.49520898,10.1697693 C3.29975172,10.485692 3.38806011,10.9062599 3.692379,11.10917 C3.80189552,11.1822282 3.92445931,11.2170576 4.04566296,11.2170576 C4.26116969,11.2170576 4.47219301,11.1067121 4.59732595,10.9044818 C5.28016696,9.80066106 6.03821871,9.30086408 6.66070977,9.08357241 C5.96018693,10.0266339 5.28006621,11.4260341 5.86230718,12.8699386 C5.96739064,13.1305317 6.21060395,13.287421 6.46666303,13.287421 C6.55094138,13.287421 6.63663024,13.2704246 6.71929657,13.234497 C7.05293405,13.0895313 7.21015624,12.6911894 7.07051513,12.3448301 C6.61985518,11.2272554 7.61094437,9.9524253 8.1895583,9.33642565 C8.87809175,10.0093761 10.2386858,11.788553 10.0115927,15.1853107 C8.40818832,15.3666224 6.93288904,15.739496 5.72392546,16.2784107 C4.0364946,17.0305903 3.00898386,18.0516781 2.77005248,19.1936229 C2.26125911,18.9918633 1.63206809,18.8177685 0.654882561,18.8177685 C0.293185885,18.8177685 0,19.1221337 0,19.4976221 C0,19.8731104 0.293185885,20.1774756 0.654882561,20.1774756 C1.6823933,20.1774756 2.16373198,20.3938783 2.72103704,20.6444828 C3.32463726,20.9158489 4.00878803,21.2234043 5.30767203,21.2234043 C6.6066064,21.2234043 7.2907068,20.9158489 7.89430701,20.6444305 C8.45161207,20.3938783 8.93295076,20.1774756 9.96041112,20.1774756 C10.9879219,20.1774756 11.4692605,20.3938783 12.026616,20.6444305 C12.6302162,20.9157967 13.314367,21.223352 14.6133013,21.223352 C15.9122861,21.223352 16.5964872,20.9157967 17.2001378,20.6443782 C17.7574933,20.393826 18.2388823,20.1774234 19.2664434,20.1774234 C20.2940045,20.1774234 20.7753432,20.393826 21.332749,20.6443782 C21.9363996,20.9157444 22.6205504,21.223352 23.9195855,21.223352 C24.2812822,21.223352 24.5744681,20.9189867 24.5744681,20.5434984 C24.5744681,20.16801 24.2812822,19.8636448 23.9195855,19.8636448 C22.8917725,19.8635925 22.3942633,19.6471898 21.8368575,19.3965854 Z M16.6794558,19.3965854 C16.12205,19.6471898 15.6407113,19.8635925 14.6130998,19.8635925 C13.5855891,19.8635925 13.1042504,19.6471898 12.546895,19.3966376 C11.9432948,19.1252715 11.259144,18.8177162 9.96020961,18.8177162 C8.66127524,18.8177162 7.97717485,19.1252715 7.37357463,19.3966899 C6.81626957,19.6472421 6.33493089,19.8636448 5.30747052,19.8636448 C4.75419551,19.8636448 4.35940208,19.8008368 4.02571423,19.7037746 C4.03281718,18.9560925 4.8594301,18.1433537 6.2404263,17.5277724 C7.84473744,16.812671 9.99209736,16.4188266 12.286957,16.4188266 C14.5818166,16.4188266 16.7292269,16.812671 18.3334877,17.5277724 C19.217831,17.9219829 19.8743759,18.3969914 20.2345614,18.884028 C19.9530122,18.8424524 19.6343363,18.8176639 19.2661916,18.8176639 C17.9672572,18.8176639 17.2831064,19.1252192 16.6794558,19.3965854 Z" id="Shape"></path>
            </g>
        </g>
    </g>
</svg>