<?xml version="1.0" encoding="UTF-8"?>
<svg width="241px" height="74px" viewBox="0 0 241 74" version="1.1" xmlns="http://www.w3.org/2000/svg" xmlns:xlink="http://www.w3.org/1999/xlink">
    <!-- Generator: Sketch 49 (51002) - http://www.bohemiancoding.com/sketch -->
    <title>logo-white</title>
    <desc>Created with Sketch.</desc>
    <defs>
        <filter x="-7.5%" y="-31.2%" width="115.2%" height="162.8%" filterUnits="objectBoundingBox" id="filter-1">
            <feOffset dx="0" dy="0" in="SourceAlpha" result="shadowOffsetOuter1"></feOffset>
            <feGaussianBlur stdDeviation="5.5" in="shadowOffsetOuter1" result="shadowBlurOuter1"></feGaussianBlur>
            <feColorMatrix values="0 0 0 0 0   0 0 0 0 0   0 0 0 0 0  0 0 0 0.29930933 0" type="matrix" in="shadowBlurOuter1" result="shadowMatrixOuter1"></feColorMatrix>
            <feMerge>
                <feMergeNode in="shadowMatrixOuter1"></feMergeNode>
                <feMergeNode in="SourceGraphic"></feMergeNode>
            </feMerge>
        </filter>
    </defs>
    <g id="Page-1" stroke="none" stroke-width="1" fill="none" fill-rule="evenodd">
        <g id="Artboard-Copy-8" transform="translate(-1107.000000, -23.000000)" fill="#FFFFFF" fill-rule="nonzero">
            <g id="Frame" transform="translate(31.000000, 34.000000)">
                <g id="logo-white" filter="url(#filter-1)" transform="translate(1087.754359, 0.188650)">
                    <g id="Group">
                        <path d="M10.0983274,26.4730096 L5.77296774,20.2530028 L8.1170654,16.4442027 C8.81418458,15.3114907 9.6409938,14.2693173 10.5796737,13.3401434 C16.7322679,7.2498565 26.3359165,7.14957546 32.6010009,12.8983613 C30.4511653,15.6809171 27.5714047,18.3941863 23.9617188,21.0381686 C22.735717,21.9361767 21.1778256,22.3719369 20.0449911,22.9364183 C16.7403794,24.5830769 13.4248249,25.7619407 10.0983274,26.4730096 Z" id="Combined-Shape" opacity="0.699999988"></path>
                        <path d="M23.9605829,21.0416332 C22.5514654,22.1152522 21.2026202,22.9731038 19.9140473,23.6151883 C13.3439695,26.8889997 6.7126666,28.2439293 0.0201386036,27.6799771 C0.00675604495,27.3396179 1.89511083e-14,26.9974988 1.89511083e-14,26.6537536 L1.42108547e-14,-7.82360288e-16 L0.0789136164,-7.82360288e-16 C12.1515669,2.08621447e-15 22.1570221,9.12128764 23.9605829,21.0416332 Z M24.2503408,25.0324798 L24.2503408,35.4155213 L24.2503408,38.9611664 L24.2503408,42.6658908 C24.2503408,46.3237559 26.9107625,49.4007553 30.4366391,49.820861 C29.4403909,50.4234242 28.41498,50.8673695 27.3604063,51.1526969 C26.3185989,51.4345702 25.2810449,51.5716995 24.2477443,51.5640844 L24.1714271,51.5640844 C13.8945756,51.5640844 5.1156722,44.9545499 1.61883915,35.6352815 C9.40067643,37.0668064 17.5398966,31.7110327 24.2503408,25.0324798 Z" id="Combined-Shape"></path>
                    </g>
                    <path d="M46.2990016,29.7308623 L44.0050128,29.7308623 L44.0050128,34.2930909 L46.2580375,34.2930909 L46.2580375,42.6843328 C46.2580375,48.4685868 48.5110619,51.3199796 53.6315721,51.3199796 C55.1882073,51.3199796 56.0484531,51.1163087 56.0484531,51.1163087 L56.0484531,46.3096751 C55.5978481,46.3504094 55.3930277,46.3504094 55.0243511,46.3504094 C52.8532547,46.3504094 51.8701168,45.6986623 51.8701168,42.5213958 L51.8701168,34.2930909 L55.8845968,34.2930909 L55.8845968,29.7308623 L51.8701168,29.7308623 L51.8701168,25.2501022 L46.2990016,25.2501022 L46.2990016,29.7308623 Z M59.8091165,51.0348404 L65.46216,51.0348404 L65.46216,29.7308623 L59.8091165,29.7308623 L59.8091165,51.0348404 Z M59.3175474,24.5983552 C59.3175474,26.4313935 60.7512905,27.8163557 62.5946741,27.8163557 C64.4790218,27.8163557 65.9127646,26.4313935 65.9127646,24.5983552 C65.9127646,22.7653169 64.4790218,21.3803547 62.5946741,21.3803547 C60.7512905,21.3803547 59.3175474,22.7653169 59.3175474,24.5983552 Z M80.8975867,46.5948143 C77.3337117,46.5948143 74.7939383,44.0285607 74.7939383,40.4032185 C74.7939383,36.9815471 77.046963,34.1708883 80.6927663,34.1708883 C83.1096472,34.1708883 84.7482104,35.3521796 85.6903841,36.2075977 L87.2879835,31.4824323 C85.8952048,30.4233435 83.6831443,29.2013179 80.52891,29.2013179 C74.0156208,29.2013179 69.1408951,33.9672174 69.1408951,40.4439528 C69.1408951,46.9206879 73.8927287,51.5643849 80.5698739,51.5643849 C83.6831443,51.5643849 86.0180969,50.2608909 87.2470193,49.2832706 L85.7313482,44.6803079 C84.7891746,45.4542573 83.0686831,46.5948143 80.8975867,46.5948143 Z M90.8028624,51.0348404 L96.4559058,51.0348404 L96.4559058,40.0366109 L103.62462,51.0348404 L110.260801,51.0348404 L102.149913,39.3848638 L109.687304,29.7308623 L103.337871,29.7308623 L96.4559058,38.6923826 L96.4559058,21.5840256 L90.8028624,21.5840256 L90.8028624,51.0348404 Z M109.858389,40.4439528 C109.858389,34.0079516 114.241546,29.2013179 120.345194,29.2013179 C126.981376,29.2013179 130.750071,33.6006098 130.750071,40.5661551 C130.750071,40.973497 130.750071,41.3808388 130.709107,41.7881807 L115.634325,41.7881807 C115.757217,44.6395736 118.051206,46.6762826 121.20544,46.6762826 C124.11389,46.6762826 125.793417,44.9654471 126.407879,44.0692951 L130.13561,46.8799536 C129.316329,48.3871185 126.448843,51.5643849 121.123512,51.5643849 C114.241546,51.5643849 109.858389,46.8392196 109.858389,40.4439528 Z M115.798182,38.1221041 L125.0151,38.1221041 C124.892208,35.5151166 123.00786,33.8042807 120.427123,33.8042807 C117.764458,33.8042807 116.043966,35.6780532 115.798182,38.1221041 Z M134.838447,29.7308623 L132.544459,29.7308623 L132.544459,34.2930909 L134.797483,34.2930909 L134.797483,42.6843328 C134.797483,48.4685868 137.050508,51.3199796 142.171018,51.3199796 C143.727653,51.3199796 144.587899,51.1163087 144.587899,51.1163087 L144.587899,46.3096751 C144.137294,46.3504094 143.932474,46.3504094 143.563797,46.3504094 C141.3927,46.3504094 140.409563,45.6986623 140.409563,42.5213958 L140.409563,34.2930909 L144.424043,34.2930909 L144.424043,29.7308623 L140.409563,29.7308623 L140.409563,25.2501022 L134.838447,25.2501022 L134.838447,29.7308623 Z" id="ticket-copy"></path>
                    <path d="M167.665681,31.7151041 C166.451646,30.6488205 164.104514,29.0904059 160.624284,29.0904059 C154.351776,29.0904059 149.617044,33.9296933 149.617044,40.3273953 C149.617044,46.7661082 154.230372,51.5643849 160.664752,51.5643849 C164.18545,51.5643849 166.613518,49.8419265 167.665681,48.8986754 L166.411179,45.2076937 C165.520887,46.0279117 163.618901,47.5863265 160.907559,47.5863265 C156.982182,47.5863265 154.068501,44.4284865 154.068501,40.3273953 C154.068501,36.2673152 156.739375,33.150486 160.745687,33.150486 C163.416562,33.150486 165.359016,34.544857 166.330243,35.488108 L167.665681,31.7151041 Z M181.164467,29.0904059 C178.331722,29.0904059 176.186929,30.7308423 175.256169,32.4122896 L175.256169,21.3803547 L170.845179,21.3803547 L170.845179,51.0312429 L175.256169,51.0312429 L175.256169,38.112806 C175.256169,35.2010316 177.117688,33.1094751 179.909966,33.1094751 C182.338034,33.1094751 184.159084,34.8319332 184.159084,37.784719 L184.159084,51.0312429 L188.529606,51.0312429 L188.529606,38.1538171 C188.529606,33.4785733 186.62762,29.0904059 181.164467,29.0904059 Z M191.668637,44.4284865 C191.668637,40.2863843 194.986997,37.3746099 199.843132,37.3746099 C202.2712,37.3746099 204.092251,38.1948278 204.901607,38.9330244 L204.901607,36.9234896 C204.901607,34.4628351 203.201959,32.9864423 200.409681,32.9864423 C198.062549,32.9864423 196.03916,33.8066605 194.501383,34.6678897 L192.801736,31.5510605 C194.501383,30.4437659 197.334129,29.0904059 200.854827,29.0904059 C207.127335,29.0904059 209.272129,32.5353224 209.272129,37.210566 L209.272129,51.0312429 L205.427688,51.0312429 L205.063478,49.4318174 C203.970847,50.6621448 202.2712,51.5643849 199.640793,51.5643849 C195.189336,51.5643849 191.668637,48.7346319 191.668637,44.4284865 Z M196.079627,44.3054537 C196.079627,46.4380209 197.900678,47.9964357 200.571553,47.9964357 C203.161492,47.9964357 205.02301,46.5200426 205.02301,44.3054537 C205.02301,42.0498537 203.201959,40.6144717 200.531085,40.6144717 C197.86021,40.6144717 196.079627,42.1728862 196.079627,44.3054537 Z M213.830707,51.0312429 L218.241697,51.0312429 L218.241697,29.6235477 L213.830707,29.6235477 L213.830707,51.0312429 Z M213.264158,24.3331403 C213.264158,25.8915549 214.478191,27.1218822 216.015968,27.1218822 C217.553744,27.1218822 218.767778,25.8915549 218.767778,24.3331403 C218.767778,22.7747257 217.553744,21.5443983 216.015968,21.5443983 C214.478191,21.5443983 213.264158,22.7747257 213.264158,24.3331403 Z" id="chai"></path>
                </g>
            </g>
        </g>
    </g>
</svg>